<svg width="331" height="90" viewBox="0 0 331 90" fill="none" xmlns="http://www.w3.org/2000/svg">
<path d="M45.5135 84.1989C40.5342 85.0786 35.4674 85.3423 30.2261 86.0448L14.2391 38.9358V88.0666C9.25992 88.5938 4.7174 89.2969 0 90V0H13.2788L31.4489 51.0652V0H45.5135V84.1989ZM73.0314 32.959C78.448 32.959 86.7469 32.6953 91.7261 32.6953V46.7574C85.5234 46.7574 78.2731 46.7575 73.0314 47.0212V67.9395C81.2434 67.4124 89.455 66.7086 97.7536 66.4448V79.9792L59.0538 83.0561V0H97.7536V14.0625H73.0314V32.959ZM149.732 14.0628H135.23V78.7502C130.513 78.7502 125.796 78.7502 121.254 78.9255V14.0628H106.752V0H149.732L149.732 14.0628ZM172.445 31.9925H191.576V46.0547H172.445V77.9593H158.728V0H197.779V14.0625H172.445V31.9925ZM220.492 65.6543C228.441 65.8295 236.478 66.4458 244.253 66.8845V80.7714C231.761 79.9799 219.269 79.1899 206.515 78.9255V0H220.492V65.6543ZM256.046 81.7383C260.502 82.0024 265.219 82.2661 269.761 82.7926V0H256.046V81.7383ZM331 0L313.266 42.8029L331 90C325.758 89.2969 320.517 88.33 315.275 87.451L305.229 61.4359L295.009 85.3423C289.941 84.4626 285.049 84.1989 279.984 83.4958L297.979 42.275L281.73 0H296.755L305.928 23.6426L315.712 0H331V0Z" fill="#D81F26"/>
</svg>
